<?xml version="1.0" standalone="no"?>
<!DOCTYPE svg PUBLIC "-//W3C//DTD SVG 20010904//EN"
 "http://www.w3.org/TR/2001/REC-SVG-20010904/DTD/svg10.dtd">
<svg version="1.0" xmlns="http://www.w3.org/2000/svg"
 width="350.000000pt" height="350.000000pt" viewBox="0 0 350.000000 350.000000"
 preserveAspectRatio="xMidYMid meet">
<metadata>
Created by potrace 1.14, written by Peter Selinger 2001-2017
</metadata>
<g transform="translate(0.000000,350.000000) scale(0.100000,-0.100000)"
fill="#000000" stroke="none">
<path d="M960 3060 c-30 -5 -58 -6 -61 -4 -4 2 -9 -1 -11 -6 -2 -6 -13 -12
-26 -13 -12 0 -22 -5 -22 -9 0 -5 -9 -4 -19 2 -29 15 -37 12 -15 -6 10 -8 14
-13 8 -10 -6 3 -20 -1 -30 -9 -16 -12 -22 -11 -39 3 -19 16 -19 16 -6 0 12
-16 9 -22 -11 -19 -5 0 -8 -4 -8 -9 0 -5 -9 -10 -21 -10 -11 0 -17 -4 -14 -10
3 -5 -1 -10 -10 -10 -10 0 -13 5 -9 12 4 6 3 8 -4 4 -6 -3 -9 -15 -7 -25 3
-14 -2 -17 -21 -15 -20 2 -23 0 -14 -11 10 -11 8 -13 -9 -10 -11 2 -24 -1 -27
-7 -4 -7 -2 -8 4 -4 24 15 11 -14 -13 -30 -14 -9 -24 -24 -23 -33 2 -9 -3 -15
-10 -13 -8 1 -11 -2 -7 -8 4 -6 -1 -18 -11 -26 -11 -9 -13 -12 -6 -9 11 6 11
3 0 -16 -7 -13 -15 -26 -18 -29 -3 -3 -7 -18 -8 -35 -2 -16 -11 -39 -20 -49
-10 -11 -11 -16 -4 -12 10 6 11 1 6 -21 -4 -15 -11 -33 -15 -39 -5 -6 -6 -14
-3 -17 3 -3 2 -12 -2 -19 -5 -7 -10 -22 -11 -33 -2 -11 -8 -22 -13 -23 -6 -2
-8 -8 -4 -13 3 -5 0 -9 -6 -9 -6 0 -8 -4 -5 -10 3 -5 -2 -10 -12 -11 -10 0
-13 -3 -7 -5 9 -4 8 -14 -3 -36 -12 -23 -18 -27 -25 -17 -7 10 -8 8 -3 -7 7
-27 -4 -56 -18 -47 -6 4 -8 0 -4 -11 5 -11 3 -15 -5 -10 -7 5 -9 -1 -6 -19 3
-16 1 -25 -6 -24 -6 1 -10 -6 -10 -15 1 -10 -3 -18 -9 -18 -6 0 -7 -3 -4 -7 4
-3 1 -13 -6 -21 -10 -13 -9 -14 2 -7 11 6 12 5 5 -6 -12 -18 -12 -132 0 -141
6 -4 4 -14 -5 -24 -9 -11 -9 -15 -1 -10 11 6 17 -5 13 -26 0 -5 4 -8 10 -8 8
0 7 -6 -2 -17 -9 -10 -9 -14 -2 -10 8 5 18 -4 28 -23 8 -16 12 -30 8 -30 -5 0
-3 -4 2 -8 6 -4 22 -23 36 -42 59 -78 138 -146 196 -169 18 -8 30 -18 27 -23
-3 -5 0 -8 7 -6 21 4 109 -23 109 -34 0 -5 4 -7 10 -3 5 3 20 3 32 0 20 -5 27
-19 46 -102 13 -53 32 -114 43 -136 20 -37 20 -41 4 -110 -32 -140 -84 -413
-91 -475 -6 -59 -5 -66 17 -86 40 -37 86 -66 93 -59 3 3 6 2 6 -4 0 -5 23 -16
50 -23 28 -7 50 -16 50 -20 0 -14 133 -10 187 6 87 25 107 51 122 159 18 121
37 168 65 161 11 -3 51 -8 89 -12 66 -7 67 -7 63 -33 -2 -14 -5 -41 -5 -59 -1
-24 -5 -31 -13 -26 -10 6 -10 4 0 -8 7 -9 9 -19 4 -22 -5 -3 -8 -18 -6 -33 1
-15 -3 -34 -9 -42 -10 -12 -9 -13 2 -7 13 8 11 -4 -6 -50 -5 -14 30 -50 68
-69 15 -8 64 -24 109 -36 101 -26 265 -24 315 3 17 9 37 19 47 22 10 3 19 21
23 46 7 39 9 42 34 37 32 -7 154 19 201 43 54 28 68 49 68 105 0 28 5 85 12
127 13 77 13 77 53 93 22 9 40 15 42 13 6 -9 37 -137 54 -227 11 -57 23 -107
27 -110 3 -3 55 -5 114 -4 138 2 221 26 308 90 34 26 62 52 62 58 0 7 -18 90
-40 186 -40 170 -80 382 -80 420 0 13 23 34 69 64 135 87 157 141 104 251
l-28 56 41 76 c69 129 82 192 56 270 -15 45 -39 62 -88 62 -13 0 -70 -24 -127
-53 l-102 -53 -45 54 c-25 30 -92 97 -149 150 -58 54 -114 107 -126 119 -37
38 -136 93 -220 120 -73 24 -95 27 -245 27 -91 1 -181 -3 -201 -7 -35 -8 -37
-7 -56 30 -46 87 -59 108 -78 128 -41 45 -65 75 -58 75 3 0 -4 8 -15 19 -12
10 -18 21 -14 25 4 4 2 6 -3 4 -14 -4 -86 52 -80 62 3 5 0 12 -6 16 -8 5 -9 3
-4 -6 5 -8 3 -11 -6 -8 -8 3 -14 10 -14 16 0 5 -4 14 -9 19 -5 5 -6 3 -2 -4 4
-7 2 -13 -3 -13 -6 0 -11 4 -11 9 0 5 -14 12 -30 16 -17 4 -28 10 -25 15 3 4
-2 11 -11 14 -10 4 -13 2 -8 -7 5 -9 4 -9 -7 1 -7 6 -21 12 -31 12 -10 0 -18
5 -18 10 0 6 -6 10 -12 9 -30 -4 -49 2 -43 12 4 6 1 10 -6 8 -27 -3 -40 1 -33
12 5 8 1 8 -13 0 -12 -6 -24 -6 -29 -1 -19 18 -181 31 -254 20z"/>
</g>
</svg>
